<svg width="693" height="522" viewBox="0 0 693 522" fill="none" xmlns="http://www.w3.org/2000/svg">
<g clip-path="url(#clip0_4502_19029)">
<path opacity="0.18" d="M241.131 352.294C276.456 367.821 316.41 367.582 354.998 367.07C375.24 366.813 396.182 366.403 414.613 358.016C440.235 346.349 456.873 321.308 479.353 304.363C505.163 284.872 538.199 276.468 563.224 255.987C575.404 246.026 585.266 233.53 592.125 219.37C598.984 205.209 602.675 189.724 602.94 173.992C603.205 158.259 600.038 142.658 593.66 128.275C587.282 113.891 577.846 101.07 566.008 90.7046C552.77 79.1232 536.969 70.941 521.305 62.8956L442.644 22.4119C424.213 12.9316 405.303 3.29747 384.737 0.718133C367.382 -1.45124 349.822 1.55514 332.86 5.43269C284.519 16.365 236.553 35.2061 201.092 69.6941C170.584 99.4163 150.666 139.336 117.289 165.796C108.748 172.543 99.2845 178.505 93.0668 187.421C70.6898 219.552 93.3572 260.599 122.43 277.066C162.692 299.853 198.922 333.76 241.131 352.294Z" fill="#3E933E"/>
<path d="M346.301 522.002C495.056 522.002 615.646 507.104 615.646 488.726C615.646 470.349 495.056 455.451 346.301 455.451C197.547 455.451 76.957 470.349 76.957 488.726C76.957 507.104 197.547 522.002 346.301 522.002Z" fill="#3E933E"/>
<path d="M346.301 522.002C495.056 522.002 615.646 507.104 615.646 488.726C615.646 470.349 495.056 455.451 346.301 455.451C197.547 455.451 76.957 470.349 76.957 488.726C76.957 507.104 197.547 522.002 346.301 522.002Z" fill="url(#paint0_linear_4502_19029)"/>
<path d="M198.75 163.643C193.754 160.255 188.129 157.904 182.207 156.731C176.286 155.557 170.19 155.584 164.279 156.81C162.116 157.147 160.072 158.022 158.335 159.355C154.286 162.772 154.918 169.126 153.842 174.353C152.527 180.793 148.205 186.31 146.651 192.665C145.745 197.446 145.693 202.35 146.497 207.15C148.773 226.083 153.309 244.675 160.009 262.529L141.219 510.06C141.219 510.06 160.436 513.169 199.416 516.278L203.55 280.55L198.75 163.643Z" fill="#EEA886"/>
<path d="M177.381 308.001L202.269 408.647V263.486L191.2 230.587L177.381 308.001Z" fill="url(#paint1_linear_4502_19029)"/>
<path d="M502.839 165.76C507.846 162.397 513.476 160.072 519.396 158.922C525.317 157.772 531.408 157.82 537.31 159.064C539.476 159.409 541.524 160.283 543.271 161.609C547.303 165.026 546.688 171.38 547.747 176.624C549.079 183.064 553.401 188.581 554.955 194.936C555.863 199.712 555.91 204.612 555.092 209.404C552.832 228.338 548.301 246.931 541.597 264.783L560.302 508.863C560.302 508.863 539.377 512.382 501.985 515.918L497.971 282.787L502.839 165.76Z" fill="#EEA886"/>
<path d="M527.403 300.81L518.571 346.162L499.764 387.073L498.107 298.043L527.403 300.81Z" fill="url(#paint2_linear_4502_19029)"/>
<path d="M514.216 82.6758H181.174C173.278 82.6758 166.877 89.0769 166.877 96.9732V296.197C166.877 304.093 173.278 310.495 181.174 310.495H514.216C522.113 310.495 528.514 304.093 528.514 296.197V96.9732C528.514 89.0769 522.113 82.6758 514.216 82.6758Z" fill="#3E933E"/>
<path d="M514.216 82.6758H181.174C173.278 82.6758 166.877 89.0769 166.877 96.9732V296.197C166.877 304.093 173.278 310.495 181.174 310.495H514.216C522.113 310.495 528.514 304.093 528.514 296.197V96.9732C528.514 89.0769 522.113 82.6758 514.216 82.6758Z" fill="url(#paint3_linear_4502_19029)"/>
<path d="M514.216 73.5361H181.174C173.278 73.5361 166.877 79.9373 166.877 87.8335V287.058C166.877 294.954 173.278 301.355 181.174 301.355H514.216C522.113 301.355 528.514 294.954 528.514 287.058V87.8335C528.514 79.9373 522.113 73.5361 514.216 73.5361Z" fill="#3E933E"/>
<path d="M198.904 168.512C204.661 162.123 204.661 162.123 211.169 154.47L238.893 122.015C243.253 117.254 247.25 112.172 250.85 106.812H277.036C276.301 113.854 275.964 120.931 276.028 128.011V169.537H279.735C283.967 169.497 288.192 169.154 292.375 168.512V191.777C288.222 191.261 284.04 191.005 279.855 191.008H276.028V197.397C275.91 202.654 276.248 207.912 277.036 213.112H250.73C251.443 207.819 251.78 202.482 251.738 197.141V190.974H215.525C207.206 190.974 203.568 191.094 198.904 191.469V168.512ZM251.858 154.983C251.858 149.226 252.114 142.206 252.626 136.586C250.064 140.156 248.151 142.718 244.7 147.057L225.996 169.793H251.806L251.858 154.983Z" fill="white"/>
<path d="M313.506 203.528C309.429 199.515 306.25 194.682 304.179 189.35C300.813 179.964 299.124 170.06 299.191 160.089C299.191 146.663 302.386 132.758 307.254 124.695C315.043 111.662 328.333 104.505 344.424 104.505C356.825 104.505 367.689 108.724 375.478 116.462C379.561 120.47 382.741 125.304 384.805 130.64C388.19 140.062 389.878 150.009 389.793 160.02C389.793 173.447 386.598 187.505 381.747 195.55C374.078 208.328 360.651 215.485 344.424 215.485C331.903 215.416 321.312 211.317 313.506 203.528ZM325.463 159.115C325.463 181.988 331.971 193.74 344.629 193.74C357.286 193.74 363.538 182.244 363.538 159.576C363.47 137.592 356.774 126.062 344.424 126.062C332.415 126.062 325.395 138.241 325.395 159.064L325.463 159.115Z" fill="white"/>
<path d="M396.422 168.512C402.178 162.123 402.178 162.123 408.687 154.47L436.427 122.015C440.76 117.252 444.728 112.17 448.299 106.812H474.502C473.752 113.853 473.41 120.931 473.477 128.011V169.537H477.184C481.417 169.497 485.641 169.154 489.825 168.512V191.777C485.671 191.261 481.489 191.005 477.304 191.008H473.477V197.397C473.356 202.655 473.699 207.914 474.502 213.112H448.179C448.899 207.819 449.242 202.482 449.204 197.141V190.974H413.042C404.741 190.974 401.085 191.094 396.422 191.469V168.512ZM449.375 154.983C449.375 149.226 449.631 142.206 450.144 136.586C447.582 140.156 445.668 142.718 442.218 147.057L423.513 169.793H449.324L449.375 154.983Z" fill="white"/>
<path d="M200.134 250.539C202.286 250.187 204.463 250.015 206.642 250.026C209.287 249.825 211.913 250.603 214.022 252.213C214.782 252.908 215.382 253.759 215.78 254.709C216.178 255.659 216.365 256.684 216.328 257.713C216.38 258.738 216.228 259.763 215.879 260.728C215.529 261.693 214.991 262.579 214.295 263.333C213.218 264.332 211.95 265.103 210.568 265.599C209.185 266.095 207.716 266.306 206.25 266.22C205.338 266.253 204.425 266.173 203.534 265.981V276.52H200.117L200.134 250.539ZM203.551 263.213C204.469 263.426 205.41 263.518 206.352 263.487C210.452 263.487 212.946 261.505 212.946 257.867C212.946 254.228 210.486 252.742 206.745 252.742C205.673 252.713 204.602 252.805 203.551 253.015V263.213Z" fill="white"/>
<path d="M221.827 268.253L219.094 276.52H215.678L224.594 250.231H228.66L237.628 276.52H234.006L231.205 268.253H221.827ZM230.368 265.605L227.789 258.038C227.208 256.33 226.815 254.758 226.422 253.238C226.046 254.792 225.602 256.398 225.107 257.987L222.528 265.605H230.368Z" fill="white"/>
<path d="M260.91 275.34C258.318 276.276 255.586 276.767 252.83 276.792C251.034 276.965 249.222 276.743 247.522 276.14C245.821 275.537 244.273 274.569 242.987 273.304C241.701 272.039 240.707 270.507 240.076 268.817C239.445 267.127 239.193 265.319 239.336 263.52C239.336 255.679 244.751 249.957 253.565 249.957C255.812 249.902 258.046 250.315 260.124 251.17L259.304 253.937C257.476 253.136 255.492 252.751 253.496 252.81C247.091 252.81 242.923 256.79 242.923 263.366C242.923 269.943 246.937 273.991 253.069 273.991C254.612 274.072 256.154 273.828 257.596 273.274V265.45H252.25V262.717H260.91V275.34Z" fill="white"/>
<path d="M279.703 264.187H269.454V273.668H280.847V276.52H266.055V250.231H280.267V253.084H269.488V261.386H279.737L279.703 264.187Z" fill="white"/>
<path d="M293.572 276.52V250.231H297.279L305.7 263.521C307.454 266.266 309.035 269.119 310.432 272.062C310.124 268.646 310.039 265.366 310.039 261.266V250.266H313.25V276.554H309.834L301.481 263.214C299.669 260.387 298.026 257.455 296.562 254.434H296.442C296.647 257.764 296.715 260.925 296.715 265.28V276.52H293.572Z" fill="white"/>
<path d="M341.692 263.091C341.692 272.145 336.192 276.945 329.479 276.945C322.766 276.945 317.658 271.564 317.658 263.604C317.658 255.251 322.783 249.802 329.872 249.802C336.961 249.802 341.692 255.302 341.692 263.091ZM321.297 263.518C321.297 269.138 324.337 274.177 329.684 274.177C335.03 274.177 338.105 269.224 338.105 263.245C338.105 258.035 335.372 252.569 329.718 252.569C324.064 252.569 321.297 257.762 321.297 263.518Z" fill="white"/>
<path d="M350.109 253.118H342.115V250.231H361.588V253.118H353.543V276.52H350.127L350.109 253.118Z" fill="white"/>
<path d="M372.779 250.231H386.94V253.084H376.178V261.813H386.12V264.614H376.178V276.571H372.762L372.779 250.231Z" fill="white"/>
<path d="M414.238 263.091C414.238 272.145 408.737 276.945 402.041 276.945C395.089 276.945 390.221 271.564 390.221 263.604C390.221 255.251 395.345 249.802 402.417 249.802C409.489 249.802 414.238 255.302 414.238 263.091ZM393.842 263.518C393.842 269.138 396.883 274.177 402.229 274.177C407.576 274.177 410.65 269.224 410.65 263.245C410.65 258.035 407.917 252.569 402.263 252.569C396.609 252.569 393.842 257.762 393.842 263.518Z" fill="white"/>
<path d="M422.042 250.231V265.793C422.042 271.686 424.656 274.18 428.175 274.18C432.069 274.18 434.563 271.601 434.563 265.793V250.231H437.98V265.605C437.98 273.685 433.726 276.998 428.038 276.998C422.657 276.998 418.592 273.924 418.592 265.759V250.283L422.042 250.231Z" fill="white"/>
<path d="M443.889 276.52V250.231H447.595L456.017 263.521C457.772 266.263 459.347 269.116 460.731 272.062H460.817C460.509 268.646 460.424 265.366 460.424 261.266V250.266H463.618V276.554H460.202L451.866 263.214C450.047 260.391 448.404 257.459 446.946 254.434H446.827C447.015 257.764 447.1 260.925 447.1 265.28V276.52H443.889Z" fill="white"/>
<path d="M469.514 250.572C471.906 250.213 474.321 250.03 476.739 250.025C481.608 250.025 485.092 251.17 487.381 253.305C488.645 254.518 489.63 255.991 490.27 257.622C490.91 259.253 491.189 261.002 491.088 262.751C491.185 264.626 490.901 266.501 490.252 268.263C489.603 270.025 488.603 271.636 487.313 273C484.853 275.46 480.788 276.792 475.68 276.792C473.618 276.777 471.559 276.64 469.514 276.382V250.572ZM472.93 273.82C474.061 273.988 475.204 274.056 476.346 274.025C483.606 274.025 487.535 269.96 487.535 262.871C487.535 256.67 484.119 252.724 476.893 252.724C475.557 252.699 474.223 252.82 472.913 253.083L472.93 273.82Z" fill="white"/>
<path d="M182.199 160.654C183.664 161.384 184.913 162.485 185.82 163.848C186.57 165.45 186.939 167.204 186.896 168.973L187.409 179.99C187.64 181.803 187.423 183.645 186.777 185.354C186.432 186.197 185.801 186.892 184.995 187.317C184.19 187.742 183.26 187.869 182.369 187.677C183.024 189.822 183.235 192.076 182.991 194.305C182.748 196.534 182.054 198.69 180.952 200.642C180.399 201.464 179.968 202.362 179.671 203.307C179.529 204.447 179.586 205.603 179.841 206.723C180.229 209.487 180.022 212.301 179.236 214.979C178.449 217.656 177.101 220.135 175.281 222.25C174.724 222.943 174.04 223.523 173.265 223.959C172.249 224.392 171.158 224.624 170.054 224.642L165.032 225.069C164.783 225.15 164.52 225.174 164.261 225.137C164.002 225.101 163.755 225.006 163.539 224.859C163.323 224.712 163.143 224.518 163.014 224.29C162.885 224.063 162.81 223.81 162.794 223.549C158.981 211.453 157.248 198.798 157.669 186.123C157.867 179.736 158.633 173.379 159.958 167.128C160.761 163.472 162.333 157.904 166.244 156.418C171.301 154.641 177.826 158.143 182.199 160.654Z" fill="#EEA886"/>
<path d="M512.081 160.653C510.616 161.383 509.367 162.484 508.46 163.847C507.709 165.449 507.341 167.203 507.384 168.972L506.871 179.99C506.64 181.802 506.857 183.644 507.503 185.353C507.848 186.197 508.479 186.891 509.285 187.316C510.09 187.741 511.02 187.869 511.911 187.676C511.258 189.82 511.046 192.074 511.286 194.302C511.527 196.53 512.216 198.686 513.311 200.641C513.876 201.459 514.313 202.358 514.609 203.306C514.754 204.447 514.69 205.604 514.422 206.723C514.042 209.487 514.254 212.301 515.043 214.978C515.832 217.654 517.181 220.133 518.999 222.25C519.556 222.943 520.24 223.523 521.015 223.958C522.031 224.391 523.122 224.623 524.226 224.641L529.3 225.137C529.548 225.218 529.812 225.242 530.07 225.205C530.329 225.169 530.576 225.073 530.792 224.927C531.008 224.78 531.188 224.585 531.317 224.358C531.446 224.131 531.522 223.877 531.537 223.616C535.351 211.521 537.083 198.866 536.662 186.19C536.467 179.802 535.695 173.445 534.356 167.195C533.57 163.54 532.648 158.962 528.77 157.476C523.663 155.614 516.454 158.142 512.081 160.653Z" fill="#EEA886"/>
</g>
<defs>
<linearGradient id="paint0_linear_4502_19029" x1="344.662" y1="442.418" x2="349.632" y2="583.41" gradientUnits="userSpaceOnUse">
<stop stop-opacity="0"/>
<stop offset="0.95"/>
</linearGradient>
<linearGradient id="paint1_linear_4502_19029" x1="192.601" y1="395.665" x2="187.63" y2="199.088" gradientUnits="userSpaceOnUse">
<stop stop-opacity="0"/>
<stop offset="0.99"/>
</linearGradient>
<linearGradient id="paint2_linear_4502_19029" x1="514.25" y1="368.573" x2="510.936" y2="245.26" gradientUnits="userSpaceOnUse">
<stop stop-opacity="0"/>
<stop offset="0.95"/>
</linearGradient>
<linearGradient id="paint3_linear_4502_19029" x1="341.606" y1="407.314" x2="349.344" y2="139.677" gradientUnits="userSpaceOnUse">
<stop stop-opacity="0"/>
<stop offset="0.99"/>
</linearGradient>
<clipPath id="clip0_4502_19029">
<rect width="692.588" height="522" fill="white"/>
</clipPath>
</defs>
</svg>
